<?xml version="1.0" encoding="UTF-8" ?>
<!DOCTYPE svg PUBLIC "-//W3C//DTD SVG 1.1//EN" "http://www.w3.org/Graphics/SVG/1.1/DTD/svg11.dtd">
<svg width="1250pt" height="633pt" viewBox="0 0 1250 633" version="1.1" xmlns="http://www.w3.org/2000/svg">
<g id="#af1d26ff">
<path fill="#af1d26" opacity="1.00" d=" M 13.82 3.55 C 64.86 32.60 115.44 62.47 166.56 91.38 L 166.21 91.71 C 165.76 150.14 166.16 208.59 166.02 267.03 C 115.52 296.53 64.49 325.16 14.20 355.00 C 64.50 384.82 115.46 413.56 166.02 442.96 C 166.01 501.52 166.06 560.07 165.99 618.63 C 115.22 589.43 64.54 560.09 13.78 530.86 C 13.75 355.09 13.68 179.32 13.82 3.55 Z" />
</g>
<g id="#fec35aff">
<path fill="#fec35a" opacity="1.00" d=" M 166.56 91.38 C 216.78 61.58 267.75 32.90 318.20 3.44 C 368.97 32.55 419.57 61.97 470.29 91.16 L 470.33 91.85 C 419.32 120.40 368.95 150.15 318.25 179.27 C 267.51 150.18 216.99 120.72 166.21 91.71 L 166.56 91.38 Z" />
</g>
<g id="#000000ff">
<path fill="#000000" opacity="1.00" d=" M 905.66 69.64 C 918.28 63.91 933.06 65.94 945.71 70.59 C 944.91 75.26 943.63 79.84 941.83 84.22 C 933.85 81.31 924.97 79.22 916.58 81.59 C 910.20 83.64 909.31 93.63 914.89 97.10 C 924.17 102.74 936.32 103.72 943.83 112.18 C 953.20 124.44 949.29 145.17 934.95 151.94 C 921.15 158.63 904.59 157.07 890.53 151.94 C 891.10 146.77 892.43 141.73 894.08 136.81 C 904.91 140.52 922.49 145.37 929.16 132.89 C 932.63 117.15 912.23 117.22 903.04 110.93 C 887.80 102.47 890.04 76.55 905.66 69.64 Z" />
<path fill="#000000" opacity="1.00" d=" M 675.87 67.62 C 682.40 66.70 689.03 66.83 695.58 67.53 C 704.82 96.61 713.88 125.75 722.96 154.88 C 716.72 155.64 710.41 155.75 704.19 154.88 C 702.56 149.07 700.97 143.25 699.35 137.44 C 689.77 137.33 680.20 137.33 670.62 137.44 C 668.96 143.24 667.29 149.04 665.68 154.85 C 659.91 155.72 654.06 155.65 648.29 154.90 C 657.47 125.81 666.66 96.71 675.87 67.62 M 674.91 122.62 C 681.63 122.63 688.34 122.64 695.06 122.61 C 692.04 110.63 688.60 98.75 685.31 86.83 C 681.50 98.66 678.19 110.64 674.91 122.62 Z" />
<path fill="#000000" opacity="1.00" d=" M 732.88 67.36 C 737.68 66.86 742.53 66.85 747.31 67.53 C 758.54 85.79 769.40 104.28 780.82 122.42 C 781.23 104.32 780.53 86.19 781.15 68.11 C 785.78 65.93 791.57 67.26 796.63 67.45 C 796.82 96.61 796.66 125.78 796.71 154.95 C 791.91 155.62 787.04 155.63 782.25 154.93 C 770.93 136.62 759.83 118.17 748.42 99.91 C 748.33 118.27 748.50 136.64 748.34 155.00 C 743.15 155.60 737.92 155.62 732.74 155.01 C 732.74 125.79 732.46 96.57 732.88 67.36 Z" />
<path fill="#000000" opacity="1.00" d=" M 813.27 67.43 C 819.07 66.95 824.90 66.95 830.71 67.45 C 831.72 88.49 829.21 109.78 832.30 130.66 C 834.23 144.67 857.80 144.30 859.29 130.21 C 862.01 109.53 859.96 88.50 860.56 67.68 C 866.52 66.81 872.55 66.92 878.53 67.53 C 877.93 89.61 880.28 111.95 876.90 133.84 C 872.54 161.47 827.55 164.56 816.78 140.28 C 809.66 116.82 814.50 91.62 813.27 67.43 Z" />
<path fill="#000000" opacity="1.00" d=" M 606.94 67.69 C 617.73 67.57 628.51 67.59 639.30 67.68 C 639.09 91.07 640.00 114.54 638.85 137.89 C 636.02 155.35 614.73 159.00 600.38 154.79 C 600.18 149.85 600.79 144.93 602.20 140.19 C 609.03 141.74 619.64 142.01 621.19 133.13 C 622.28 116.44 621.31 99.62 621.67 82.88 C 616.77 82.72 611.87 82.71 606.98 82.73 C 606.38 77.74 606.38 72.69 606.94 67.69 Z" />
<path fill="#000000" opacity="1.00" d=" M 605.99 212.46 C 621.64 211.97 639.34 208.42 653.15 217.83 C 669.09 230.21 667.27 260.66 648.00 268.99 C 640.40 272.34 631.89 272.49 623.72 272.24 C 623.49 281.59 623.84 290.93 623.52 300.27 C 617.63 300.74 611.72 300.78 605.84 300.15 C 605.89 270.92 605.60 241.68 605.99 212.46 M 623.85 226.34 C 623.53 236.76 623.50 247.20 623.86 257.63 C 632.68 258.85 644.55 255.63 645.15 245.04 C 648.25 232.31 635.46 223.36 623.85 226.34 Z" />
<path fill="#000000" opacity="1.00" d=" M 689.44 213.30 C 695.75 211.28 702.61 212.44 709.12 212.77 C 718.39 241.84 727.52 270.96 736.46 300.13 C 730.36 300.72 724.08 301.36 718.04 300.01 C 715.69 294.46 714.74 288.44 712.94 282.71 C 703.33 282.57 693.73 282.56 684.12 282.71 C 682.33 288.45 681.31 294.46 678.94 299.99 C 673.38 301.35 667.56 300.73 661.93 300.14 C 671.01 271.17 680.00 242.14 689.44 213.30 M 698.64 232.53 C 695.00 244.26 691.79 256.12 688.33 267.90 C 695.13 267.95 701.94 267.95 708.75 267.90 C 705.29 256.14 702.72 244.09 698.64 232.53 Z" />
<path fill="#000000" opacity="1.00" d=" M 746.67 212.82 C 751.94 212.43 760.03 210.09 762.93 216.04 C 773.36 233.03 783.25 250.39 794.21 267.04 C 794.66 249.02 794.32 230.98 794.39 212.95 C 799.64 212.03 805.01 212.03 810.30 212.78 C 810.36 241.91 810.36 271.05 810.29 300.18 C 805.51 300.88 800.67 300.87 795.89 300.24 C 784.46 282.07 773.65 263.51 762.03 245.46 C 761.64 263.69 761.99 281.93 761.85 300.16 C 756.67 300.92 751.39 300.96 746.22 300.13 C 746.52 271.04 745.60 241.82 746.67 212.82 Z" />
<path fill="#000000" opacity="1.00" d=" M 827.14 212.82 C 832.00 212.06 836.96 212.06 841.82 212.83 C 852.98 230.90 863.53 249.37 875.12 267.15 C 875.66 249.09 875.23 231.00 875.34 212.93 C 880.56 212.03 885.89 212.02 891.13 212.81 C 891.16 241.93 891.21 271.05 891.11 300.16 C 886.33 300.50 880.89 301.80 876.51 299.54 C 864.96 281.82 854.51 263.33 843.01 245.56 C 842.61 263.74 842.97 281.93 842.83 300.12 C 837.63 300.94 832.33 300.96 827.13 300.13 C 827.15 271.03 827.14 241.92 827.14 212.82 Z" />
<path fill="#000000" opacity="1.00" d=" M 933.36 212.49 C 946.09 209.83 961.01 211.83 970.17 221.85 C 984.07 238.45 984.31 263.76 975.91 282.94 C 963.70 309.36 918.65 307.42 909.51 279.42 C 901.04 256.12 904.86 219.27 933.36 212.49 M 938.33 227.39 C 921.85 234.09 923.88 256.40 926.11 270.85 C 927.28 283.68 943.08 291.52 953.55 283.53 C 964.03 273.94 962.71 257.71 961.32 244.83 C 960.78 233.41 949.98 223.32 938.33 227.39 Z" />
<path fill="#000000" opacity="1.00" d=" M 995.97 212.80 C 1001.49 212.65 1009.81 209.89 1012.77 216.27 C 1023.16 233.35 1033.26 250.62 1044.02 267.47 C 1044.42 249.28 1044.07 231.08 1044.20 212.89 C 1049.41 212.06 1054.73 212.02 1059.96 212.81 C 1059.97 241.93 1059.97 271.05 1059.96 300.17 C 1054.46 300.31 1046.18 303.07 1043.28 296.71 C 1032.84 279.76 1022.80 262.54 1011.88 245.90 C 1011.36 263.95 1011.78 282.02 1011.67 300.07 C 1006.47 300.97 1001.17 300.93 995.97 300.18 C 995.93 271.05 995.93 241.93 995.97 212.80 Z" />
<path fill="#000000" opacity="1.00" d=" M 1076.83 212.83 C 1082.76 212.03 1088.78 211.99 1094.70 212.91 C 1094.68 241.97 1094.68 271.02 1094.69 300.08 C 1088.77 301.00 1082.76 300.93 1076.84 300.16 C 1076.78 271.05 1076.79 241.94 1076.83 212.83 Z" />
<path fill="#000000" opacity="1.00" d=" M 1111.06 212.85 C 1116.97 212.15 1122.94 212.09 1128.85 212.91 C 1129.50 233.85 1127.30 255.05 1130.30 275.82 C 1132.15 289.92 1155.92 289.59 1157.32 275.38 C 1160.04 254.69 1157.85 233.65 1158.63 212.82 C 1164.56 212.17 1170.55 212.21 1176.50 212.74 C 1175.95 234.78 1178.25 257.08 1174.92 278.94 C 1170.76 306.51 1126.16 309.86 1115.01 285.99 C 1107.34 262.53 1112.60 237.12 1111.06 212.85 Z" />
<path fill="#000000" opacity="1.00" d=" M 1203.07 215.19 C 1215.76 209.05 1230.78 211.20 1243.65 215.74 C 1242.93 220.45 1241.64 225.05 1239.91 229.48 C 1231.96 226.61 1223.17 224.50 1214.82 226.80 C 1207.98 228.69 1207.28 239.40 1213.34 242.68 C 1222.74 248.04 1234.86 249.21 1242.19 257.84 C 1251.00 270.17 1247.21 290.39 1233.08 297.15 C 1219.23 303.84 1202.54 302.46 1188.48 297.07 C 1189.19 291.93 1190.47 286.89 1192.10 281.96 C 1202.87 285.90 1220.79 290.65 1227.20 277.94 C 1230.46 262.27 1210.07 262.48 1200.93 256.12 C 1186.02 247.70 1187.97 222.44 1203.07 215.19 Z" />
<path fill="#000000" opacity="1.00" d=" M 726.97 350.88 C 734.44 337.94 748.31 334.55 762.32 338.07 C 752.19 346.31 740.96 355.19 726.97 350.88 Z" />
<path fill="#000000" opacity="1.00" d=" M 608.29 358.08 C 614.48 357.32 620.74 357.31 626.94 358.03 C 633.31 373.74 639.58 389.49 645.86 405.23 C 645.94 406.37 647.16 407.43 647.72 405.95 C 654.36 390.05 660.94 374.10 667.44 358.13 C 673.17 357.23 678.99 357.35 684.74 358.05 C 686.12 387.21 687.75 416.36 688.73 445.53 C 683.13 446.10 677.46 446.28 671.88 445.33 C 671.25 426.00 670.70 406.66 669.66 387.35 C 663.42 400.48 658.11 414.03 652.13 427.29 C 647.66 427.78 643.15 427.85 638.68 427.38 C 633.10 413.80 628.05 400.00 622.35 386.48 C 621.33 406.12 621.23 425.81 620.45 445.47 C 615.27 446.18 610.01 446.20 604.84 445.35 C 606.06 416.26 607.07 387.17 608.29 358.08 Z" />
<path fill="#000000" opacity="1.00" d=" M 704.28 358.08 C 710.15 357.44 716.07 357.44 721.95 358.04 C 722.86 378.88 720.59 399.94 723.42 420.65 C 724.77 434.66 748.27 435.26 750.37 421.39 C 753.54 400.48 751.15 379.12 751.98 358.03 C 757.90 357.45 763.88 357.45 769.81 358.06 C 769.08 380.07 771.49 402.33 768.20 424.16 C 764.02 451.62 719.94 455.06 708.41 431.62 C 700.47 408.07 705.89 382.48 704.28 358.08 Z" />
<path fill="#000000" opacity="1.00" d=" M 785.16 358.16 C 804.94 358.39 824.82 357.51 844.54 358.59 C 834.07 382.92 820.29 406.06 808.78 430.05 C 820.20 430.24 831.63 430.05 843.06 430.15 C 843.82 435.17 843.79 440.27 843.13 445.31 C 822.74 445.28 802.33 445.71 781.96 445.09 C 793.47 420.83 806.79 397.45 818.42 373.26 C 807.31 373.19 796.20 373.35 785.09 373.19 C 784.46 368.19 784.47 363.15 785.16 358.16 Z" />
<path fill="#000000" opacity="1.00" d=" M 856.24 358.14 C 872.82 358.13 889.41 358.09 906.00 358.16 C 906.57 363.15 906.57 368.20 906.04 373.20 C 895.42 373.31 884.80 373.23 874.17 373.24 C 874.14 379.48 874.15 385.72 874.15 391.97 C 882.54 392.05 890.93 391.96 899.33 392.01 C 900.10 397.10 900.12 402.27 899.31 407.35 C 890.94 407.40 882.56 407.37 874.19 407.36 C 874.13 414.92 874.15 422.49 874.16 430.05 C 885.05 430.25 895.93 430.02 906.82 430.18 C 907.48 435.19 907.46 440.26 906.87 445.28 C 889.99 445.43 873.10 445.46 856.23 445.26 C 856.28 416.22 856.25 387.18 856.24 358.14 Z" />
<path fill="#000000" opacity="1.00" d=" M 920.18 358.03 C 926.06 357.45 932.00 357.45 937.89 358.04 C 938.66 378.95 936.43 400.08 939.27 420.83 C 940.81 434.87 964.31 435.08 966.23 421.16 C 969.20 400.30 966.84 379.04 967.69 358.02 C 973.66 357.46 979.68 357.42 985.66 358.11 C 984.90 380.02 987.30 402.19 984.02 423.94 C 980.06 451.77 934.98 455.22 923.96 431.05 C 916.50 407.58 921.71 382.27 920.18 358.03 Z" />
<path fill="#000000" opacity="1.00" d=" M 1004.25 358.08 C 1010.45 357.31 1016.71 357.33 1022.91 358.03 C 1029.62 374.42 1036.04 390.94 1042.77 407.33 C 1050.30 391.22 1056.50 374.51 1063.41 358.12 C 1069.17 357.23 1075.01 357.36 1080.78 358.05 C 1082.02 387.21 1083.74 416.36 1084.75 445.53 C 1079.42 445.59 1072.80 447.24 1068.24 444.80 C 1066.68 425.72 1066.88 406.46 1065.72 387.33 C 1059.24 400.28 1054.44 414.03 1048.01 426.99 C 1043.69 428.30 1039.09 427.64 1034.68 427.38 C 1029.04 413.83 1024.12 399.99 1018.27 386.53 C 1017.39 406.17 1017.18 425.83 1016.43 445.47 C 1011.26 446.15 1006.02 446.21 1000.88 445.37 C 1001.96 416.27 1003.11 387.17 1004.25 358.08 Z" />
</g>
<g id="#86600f9f">
<path fill="#86600f" opacity="0.62" d=" M 470.29 91.16 C 471.19 208.41 470.78 325.76 470.51 443.04 C 470.17 325.98 470.52 208.91 470.33 91.85 L 470.29 91.16 Z" />
</g>
<g id="#faa61aff">
<path fill="#faa61a" opacity="1.00" d=" M 318.25 179.27 C 368.95 150.15 419.32 120.40 470.33 91.85 C 470.52 208.91 470.17 325.98 470.51 443.04 C 419.71 472.36 368.86 501.60 318.12 531.04 L 318.14 530.51 C 318.54 471.92 318.42 413.31 318.20 354.72 C 318.35 296.24 318.26 237.75 318.25 179.27 Z" />
</g>
<g id="#d74d3fff">
<path fill="#d74d3f" opacity="1.00" d=" M 14.20 355.00 C 64.49 325.16 115.52 296.53 166.02 267.03 C 216.77 296.22 267.37 325.68 318.20 354.72 C 318.42 413.31 318.54 471.92 318.14 530.51 C 267.23 501.70 216.76 472.08 166.02 442.96 C 115.46 413.56 64.50 384.82 14.20 355.00 Z" />
</g>
</svg>
